<?xml version="1.0" standalone="no"?><!DOCTYPE svg PUBLIC "-//W3C//DTD SVG 1.1//EN" "http://www.w3.org/Graphics/SVG/1.1/DTD/svg11.dtd"><svg t="1695831620342" class="icon" viewBox="0 0 1061 1024" version="1.1" xmlns="http://www.w3.org/2000/svg" p-id="6135" xmlns:xlink="http://www.w3.org/1999/xlink" width="207.2265625" height="200"><path d="M37.925926 948.148148h986.074074a37.925926 37.925926 0 0 1 0 75.851852H37.925926a37.925926 37.925926 0 0 1 0-75.851852zM986.074074 242.650074L367.767704 858.415407l-241.01926 24.500149 24.651852-240.071112L688.96237 107.444148 769.630815 27.079111c36.257185-36.105481 99.441778-36.105481 135.774815 0l80.592592 80.365037c18.090667 17.825185 28.216889 42.211556 28.103111 67.546074a94.814815 94.814815 0 0 1-28.103111 67.621926l0.037926 0.037926zM214.016 796.065185l118.253037-12.022518L822.765037 295.442963l-106.192593-105.813333L226.11437 678.229333l-12.022518 117.835852zM837.518222 76.686222a17.976889 17.976889 0 0 0-12.781037 5.30963l-53.096296 52.868741 106.192592 105.813333 53.096297-52.944593a17.976889 17.976889 0 0 0 0-25.448296L850.299259 81.92a18.014815 18.014815 0 0 0-12.743111-5.30963z" fill="#515151" p-id="6136"></path></svg>