<?xml version="1.0" standalone="no"?><!DOCTYPE svg PUBLIC "-//W3C//DTD SVG 1.1//EN" "http://www.w3.org/Graphics/SVG/1.1/DTD/svg11.dtd"><svg t="1684593261001" class="icon" viewBox="0 0 1024 1024" version="1.1" xmlns="http://www.w3.org/2000/svg" p-id="2577" xmlns:xlink="http://www.w3.org/1999/xlink" width="200" height="200"><path d="M450.540923 835.421849C238.095329 835.421849 65.258028 662.585911 65.258028 450.14713 65.258028 237.711074 238.095329 64.873772 450.540923 64.873772 662.986518 64.873772 835.830632 237.711074 835.830632 450.14713 835.830632 662.584548 662.986518 835.421849 450.540923 835.421849L450.540923 835.421849ZM450.540923 159.705847C290.384053 159.705847 160.09419 289.998435 160.09419 450.14713 160.09419 610.297187 290.384053 740.591138 450.540923 740.591138 610.696431 740.591138 740.99447 610.297187 740.99447 450.14713 740.99447 289.998435 610.696431 159.705847 450.540923 159.705847L450.540923 159.705847Z" fill="#1296db" p-id="2578"></path><path d="M900.538167 958.477626C885.598531 958.477626 870.668434 952.777836 859.268854 941.387795L657.978933 740.112862C635.189312 717.323242 635.189312 680.372035 657.978933 657.576963 680.77673 634.794156 717.722486 634.794156 740.518919 657.576963L941.807478 858.851896C964.598462 881.641517 964.598462 918.592724 941.807478 941.386432 930.407899 952.777836 915.477801 958.477626 900.538167 958.477626" fill="#1296db" p-id="2579"></path></svg>