<?xml version="1.0" standalone="no"?><!DOCTYPE svg PUBLIC "-//W3C//DTD SVG 1.1//EN" "http://www.w3.org/Graphics/SVG/1.1/DTD/svg11.dtd"><svg t="1680329913605" class="icon" viewBox="0 0 1024 1024" version="1.1" xmlns="http://www.w3.org/2000/svg" p-id="1995" xmlns:xlink="http://www.w3.org/1999/xlink" width="200" height="200"><path d="M511.061628 215.650525c-4.399193 0-8.80248 1.281179-12.612249 3.843538L73.975828 504.733503c-10.361999 6.965645-13.118785 21.014616-6.15314 31.380708 6.960529 10.366092 21.014616 13.123902 31.380708 6.158257l411.859255-276.764418 411.857209 276.764418c10.361999 6.965645 24.408923 4.213975 31.380708-6.158257 6.965645-10.365068 4.208858-24.414039-6.15621-31.380708L523.672854 219.494063C519.858992 216.930681 515.460822 215.650525 511.061628 215.650525L511.061628 215.650525zM511.061628 469.280036c-4.399193 0-8.80248 1.282203-12.612249 3.843538L73.975828 758.36506c-10.361999 6.965645-13.118785 21.013593-6.15314 31.380708 6.960529 10.365068 21.014616 13.122879 31.380708 6.15621l411.859255-276.763394 411.857209 276.763394c10.361999 6.970762 24.408923 4.208858 31.380708-6.15621 6.965645-10.366092 4.208858-24.414039-6.15621-31.380708L523.672854 473.123574C519.858992 470.562239 515.460822 469.280036 511.061628 469.280036L511.061628 469.280036zM511.061628 469.280036" fill="#ffffff" p-id="1996"></path></svg>