<?xml version="1.0" standalone="no"?><!DOCTYPE svg PUBLIC "-//W3C//DTD SVG 1.1//EN" "http://www.w3.org/Graphics/SVG/1.1/DTD/svg11.dtd"><svg t="1695832300987" class="icon" viewBox="0 0 1024 1024" version="1.1" xmlns="http://www.w3.org/2000/svg" p-id="7432" xmlns:xlink="http://www.w3.org/1999/xlink" width="200" height="200"><path d="M841.074 98.228h-661.65c-46.153 0-83.568 45.569-83.568 95.274l1.162 456.669c0 49.706 33.621 90 79.774 90l129.349 0.069-28.662 185.808 301.977-185.424 262.489-0.652c46.153 0 83.568-40.294 83.568-90l2.632-456.669c-0.001-49.705-40.917-95.075-87.071-95.075z m28.439 551.388l-0.001 0.356c0 9.859-3.379 18.928-9.514 25.535-3.586 3.862-9.628 8.465-18.054 8.465h-0.139l-262.489 0.652a56.01 56.01 0 0 0-29.164 8.278L351.267 815.026l10.219-66.248a56 56 0 0 0-55.315-64.538l-129.379-0.069c-2.165 0-8.752 0-14.952-7.124-5.607-6.442-8.822-16.238-8.822-26.876v-0.157l-1.161-456.566c0.026-21.128 15.169-39.22 27.568-39.22h661.651c13.536 0 30.991 18.864 31.07 38.94l-2.633 456.448z" p-id="7433" fill="#515151"></path><path d="M737.705 331.953H279.364c-13.88 0-25.133-12.536-25.133-28s11.252-28 25.133-28h458.341c13.88 0 25.133 12.536 25.133 28s-11.252 28-25.133 28zM744.294 552H279.706c-14.069 0-25.475-12.536-25.475-28s11.406-28 25.475-28h464.587c14.069 0 25.475 12.536 25.475 28s-11.405 28-25.474 28z" p-id="7434" fill="#515151"></path></svg>